<svg width="21" height="21" viewBox="0 0 26 26" fill="none" xmlns="http://www.w3.org/2000/svg">
<path fill-rule="evenodd" clip-rule="evenodd" d="M13.0273 3.24059C7.72747 3.24059 3.43108 7.53698 3.43108 12.8368C3.43108 18.1367 7.72747 22.4331 13.0273 22.4331C18.3272 22.4331 22.6236 18.1367 22.6236 12.8368C22.6236 7.53698 18.3272 3.24059 13.0273 3.24059ZM1.29858 12.8368C1.29858 6.35923 6.54972 1.10809 13.0273 1.10809C19.5049 1.10809 24.7561 6.35923 24.7561 12.8368C24.7561 19.3145 19.5049 24.5656 13.0273 24.5656C6.54972 24.5656 1.29858 19.3145 1.29858 12.8368Z" fill="#DC5935"/>
<path fill-rule="evenodd" clip-rule="evenodd" d="M13.0273 5.37309C13.6162 5.37309 14.0936 5.85047 14.0936 6.43934V12.1779L17.7692 14.0157C18.2959 14.279 18.5094 14.9195 18.246 15.4462C17.9827 15.9729 17.3422 16.1864 16.8155 15.923L12.5505 13.7905C12.1893 13.6099 11.9611 13.2407 11.9611 12.8368V6.43934C11.9611 5.85047 12.4385 5.37309 13.0273 5.37309Z" fill="#DC5935"/>
</svg>
