<svg width="21" height="20" viewBox="0 0 26 25" fill="none" xmlns="http://www.w3.org/2000/svg">
<path fill-rule="evenodd" clip-rule="evenodd" d="M12.7663 0.159808C13.081 0.00247596 13.4514 0.00247596 13.766 0.159808L24.9431 5.74834C25.3218 5.93767 25.5609 6.32469 25.5609 6.74805C25.5609 7.1714 25.3218 7.55842 24.9431 7.74775L13.766 13.3363C13.4514 13.4936 13.081 13.4936 12.7663 13.3363L1.58929 7.74775C1.21063 7.55842 0.971436 7.1714 0.971436 6.74805C0.971436 6.32469 1.21063 5.93767 1.58929 5.74834L12.7663 0.159808ZM4.58841 6.74805L13.2662 11.0869L21.944 6.74805L13.2662 2.40915L4.58841 6.74805Z" fill="#DC5935"/>
<path fill-rule="evenodd" clip-rule="evenodd" d="M1.08944 17.4253C1.3655 16.8731 2.03687 16.6493 2.58899 16.9254L13.2662 22.264L23.9434 16.9254C24.4955 16.6493 25.1669 16.8731 25.4429 17.4253C25.719 17.9774 25.4952 18.6488 24.9431 18.9248L13.766 24.5133C13.4514 24.6707 13.081 24.6707 12.7663 24.5133L1.58929 18.9248C1.03717 18.6488 0.813374 17.9774 1.08944 17.4253Z" fill="#DC5935"/>
<path fill-rule="evenodd" clip-rule="evenodd" d="M1.08944 11.8367C1.3655 11.2846 2.03687 11.0608 2.58899 11.3369L13.2662 16.6755L23.9434 11.3369C24.4955 11.0608 25.1669 11.2846 25.4429 11.8367C25.719 12.3888 25.4952 13.0602 24.9431 13.3363L13.766 18.9248C13.4514 19.0821 13.081 19.0821 12.7663 18.9248L1.58929 13.3363C1.03717 13.0602 0.813374 12.3888 1.08944 11.8367Z" fill="#DC5935"/>
</svg>
