<svg width="20" height="21" viewBox="0 0 27 28" fill="none" xmlns="http://www.w3.org/2000/svg">
<path fill-rule="evenodd" clip-rule="evenodd" d="M13.619 2.47619C11.6489 2.47619 9.75938 3.25884 8.36625 4.65197C6.97313 6.0451 6.19048 7.93458 6.19048 9.90476V16.0952C6.19048 16.9721 5.95793 17.825 5.527 18.5714H21.7111C21.2802 17.825 21.0476 16.9721 21.0476 16.0952V9.90476C21.0476 7.93458 20.265 6.0451 18.8718 4.65197C17.4787 3.25884 15.5892 2.47619 13.619 2.47619ZM26 18.5714C25.3433 18.5714 24.7134 18.3105 24.2491 17.8462C23.7847 17.3818 23.5238 16.752 23.5238 16.0952V9.90476C23.5238 7.27786 22.4803 4.75854 20.6228 2.90104C18.7653 1.04353 16.246 0 13.619 0C10.9921 0 8.47283 1.04353 6.61532 2.90104C4.75782 4.75854 3.71429 7.27786 3.71429 9.90476V16.0952C3.71429 16.752 3.4534 17.3818 2.98903 17.8462C2.52465 18.3105 1.89482 18.5714 1.2381 18.5714C0.554314 18.5714 0 19.1257 0 19.8095C0 20.4933 0.554314 21.0476 1.2381 21.0476H26V18.5714ZM10.8559 23.691C11.4474 23.3479 12.205 23.5492 12.5481 24.1407C12.6569 24.3283 12.8131 24.484 13.0011 24.5923C13.1891 24.7005 13.4021 24.7575 13.619 24.7575C13.836 24.7575 14.049 24.7005 14.237 24.5923C14.4249 24.484 14.5812 24.3283 14.69 24.1407C15.0331 23.5492 15.7907 23.3479 16.3822 23.691C16.9737 24.0341 17.175 24.7917 16.8319 25.3831C16.5054 25.946 16.0368 26.4132 15.4729 26.738C14.909 27.0628 14.2698 27.2337 13.619 27.2337C12.9683 27.2337 12.3291 27.0628 11.7652 26.738C11.2013 26.4132 10.7327 25.946 10.4062 25.3831C10.0631 24.7917 10.2644 24.0341 10.8559 23.691Z" fill="#38C9BD"/>
<circle cx="21.5" cy="5.5" r="5.5" fill="#EE2F2F"/>
</svg>
