<svg width="198" height="30" viewBox="0 0 198 30" fill="none" xmlns="http://www.w3.org/2000/svg">
<path fill-rule="evenodd" clip-rule="evenodd" d="M112 15C112 6.71573 118.716 0 127 0C135.284 0 142 6.71573 142 15C142 23.2843 135.284 30 127 30C118.716 30 112 23.2843 112 15Z" fill="white"/>
<path fill-rule="evenodd" clip-rule="evenodd" d="M129.638 8.51481C129.562 8.47645 129.5 8.51522 129.5 8.60097V19.1467L134.085 21.4556C134.313 21.5707 134.5 21.4543 134.5 21.197V11.0456C134.5 10.9951 134.472 10.9488 134.427 10.9262L129.638 8.51481" fill="#32FC8D"/>
<path fill-rule="evenodd" clip-rule="evenodd" d="M124.5 16.5172L129.442 8.57902C129.487 8.50702 129.587 8.47904 129.663 8.51686L134.437 10.8762C134.497 10.9056 134.518 10.9791 134.483 11.035L129.524 19L124.5 16.5172" fill="#0BE370"/>
<path fill-rule="evenodd" clip-rule="evenodd" d="M119.825 8.56842C119.513 8.41492 119.407 8.52852 119.59 8.8209L124.379 16.4798L129.5 19L124.412 10.8624C124.39 10.8278 124.359 10.7999 124.322 10.7817L119.825 8.56842" fill="#14C767"/>
<path fill-rule="evenodd" clip-rule="evenodd" d="M124.5 21.1957C124.5 21.4541 124.313 21.571 124.085 21.4554L119.777 19.2768C119.625 19.1997 119.5 18.9958 119.5 18.8236V8.70285C119.5 8.53062 119.625 8.45269 119.777 8.52973L124.438 10.8873C124.476 10.9064 124.5 10.9454 124.5 10.9882V21.1957" fill="#00AB6C"/>
<path fill-rule="evenodd" clip-rule="evenodd" d="M56 15C56 6.71573 62.7157 0 71 0C79.2843 0 86 6.71573 86 15C86 23.2843 79.2843 30 71 30C62.7157 30 56 23.2843 56 15Z" fill="#55ACEE"/>
<path fill-rule="evenodd" clip-rule="evenodd" d="M70.5508 12.1922L70.5822 12.7112L70.0576 12.6477C68.148 12.404 66.4798 11.5778 65.0633 10.1902L64.3709 9.50169L64.1925 10.0101C63.8148 11.1435 64.0561 12.3405 64.843 13.1455C65.2627 13.5904 65.1683 13.654 64.4443 13.3891C64.1925 13.3044 63.9721 13.2408 63.9512 13.2726C63.8777 13.3468 64.1295 14.3107 64.3289 14.692C64.6017 15.2217 65.1578 15.7407 65.7663 16.0479L66.2804 16.2915L65.6719 16.3021C65.0843 16.3021 65.0633 16.3127 65.1263 16.5351C65.3361 17.2236 66.165 17.9545 67.0883 18.2723L67.7388 18.4947L67.1723 18.8337C66.3329 19.321 65.3466 19.5964 64.3604 19.6175C63.8882 19.6281 63.5 19.6705 63.5 19.7023C63.5 19.8082 64.78 20.4014 65.525 20.6344C67.7598 21.3229 70.4144 21.0264 72.4079 19.8506C73.8243 19.0138 75.2408 17.3507 75.9018 15.7407C76.2585 14.8827 76.6152 13.315 76.6152 12.5629C76.6152 12.0757 76.6467 12.0121 77.2343 11.4295C77.5805 11.0906 77.9058 10.7198 77.9687 10.6139C78.0737 10.4126 78.0632 10.4126 77.5281 10.5927C76.6362 10.9105 76.5103 10.8681 76.951 10.3915C77.2762 10.0525 77.6645 9.43813 77.6645 9.25806C77.6645 9.22628 77.5071 9.27924 77.3287 9.37458C77.1398 9.4805 76.7202 9.63939 76.4054 9.73472L75.8388 9.91479L75.3247 9.56524C75.0414 9.37458 74.6427 9.16273 74.4329 9.09917C73.8978 8.95087 73.0794 8.97206 72.5967 9.14154C71.2852 9.6182 70.4563 10.8469 70.5508 12.1922Z" fill="white"/>
<path fill-rule="evenodd" clip-rule="evenodd" d="M0 15C0 6.71573 6.71573 0 15 0C23.2843 0 30 6.71573 30 15C30 23.2843 23.2843 30 15 30C6.71573 30 0 23.2843 0 15Z" fill="#3B5998"/>
<path fill-rule="evenodd" clip-rule="evenodd" d="M16.5635 23.8197V15.6589H18.8162L19.1147 12.8466H16.5635L16.5673 11.4391C16.5673 10.7056 16.637 10.3126 17.6905 10.3126H19.0988V7.5H16.8457C14.1395 7.5 13.1869 8.86425 13.1869 11.1585V12.8469H11.5V15.6592H13.1869V23.8197H16.5635Z" fill="white"/>
<path fill-rule="evenodd" clip-rule="evenodd" d="M168 15C168 6.71573 174.716 0 183 0C191.284 0 198 6.71573 198 15C198 23.2843 191.284 30 183 30C174.716 30 168 23.2843 168 15Z" fill="#0077B5"/>
<path fill-rule="evenodd" clip-rule="evenodd" d="M178.824 9.26419C178.802 8.26275 178.086 7.5 176.923 7.5C175.76 7.5 175 8.26275 175 9.26419C175 10.2449 175.738 11.0296 176.879 11.0296H176.901C178.086 11.0296 178.824 10.2449 178.824 9.26419ZM178.6 12.4238H175.201V22.6374H178.6V12.4238ZM186.946 12.1836C189.183 12.1836 190.86 13.6437 190.86 16.7808L190.859 22.637H187.46V17.1727C187.46 15.8002 186.968 14.8637 185.738 14.8637C184.799 14.8637 184.239 15.495 183.994 16.1049C183.904 16.3234 183.882 16.6279 183.882 16.9332V22.6373H180.482C180.482 22.6373 180.527 13.3821 180.482 12.4237H183.882V13.8704C184.333 13.1749 185.141 12.1836 186.946 12.1836Z" fill="white"/>
</svg>
